<svg xmlns="http://www.w3.org/2000/svg" viewBox="0 0 800 500" width="100%" height="100%" style="background:#070a12; font-family: ui-monospace, SFMono-Regular, Menlo, Monaco, Consolas, monospace;">
  <defs>
    <pattern id="grid" width="25" height="25" patternUnits="userSpaceOnUse">
      <path d="M 25 0 L 0 0 0 25" fill="none" stroke="#121829" stroke-width="0.75"/>
    </pattern>
    <pattern id="grid-major" width="100" height="100" patternUnits="userSpaceOnUse">
      <rect width="100" height="100" fill="url(#grid)"/>
      <path d="M 100 0 L 0 0 0 100" fill="none" stroke="#1b253d" stroke-width="1.2"/>
    </pattern>
    <linearGradient id="cyan-glow" x1="0%" y1="0%" x2="100%" y2="100%">
      <stop offset="0%" stop-color="#00f2fe" stop-opacity="0.9"/>
      <stop offset="100%" stop-color="#4facfe" stop-opacity="0.8"/>
    </linearGradient>
    <linearGradient id="amber-glow" x1="0%" y1="0%" x2="100%" y2="100%">
      <stop offset="0%" stop-color="#f59e0b" stop-opacity="0.9"/>
      <stop offset="100%" stop-color="#d97706" stop-opacity="0.7"/>
    </linearGradient>
    <filter id="glow" x="-20%" y="-20%" width="140%" height="140%">
      <feGaussianBlur stdDeviation="3" result="blur" />
      <feComposite in="SourceGraphic" in2="blur" operator="over" />
    </filter>
  </defs>

  <!-- Background Grid -->
  <rect width="800" height="500" fill="#070a12"/>
  <rect width="800" height="500" fill="url(#grid-major)"/>

  <!-- Outer Border Frame -->
  <rect x="15" y="15" width="770" height="470" fill="none" stroke="#1e293b" stroke-width="1.5"/>
  <rect x="20" y="20" width="760" height="460" fill="none" stroke="#334155" stroke-width="0.75" stroke-dasharray="8 4"/>

  <!-- Corner Brackets -->
  <path d="M 15 35 L 15 15 L 35 15" fill="none" stroke="#00f2fe" stroke-width="2.5"/>
  <path d="M 765 15 L 785 15 L 785 35" fill="none" stroke="#00f2fe" stroke-width="2.5"/>
  <path d="M 15 465 L 15 485 L 35 485" fill="none" stroke="#00f2fe" stroke-width="2.5"/>
  <path d="M 765 485 L 785 485 L 785 465" fill="none" stroke="#00f2fe" stroke-width="2.5"/>

  <!-- Title & Metadata Block Top Left -->
  <text x="35" y="45" font-size="11" font-weight="700" fill="#00f2fe" letter-spacing="1.5">INDUSTRIA CAD SYSTEM • MODEL 3D WIREFRAME</text>
  <text x="35" y="65" font-size="16" font-weight="900" fill="#f8fafc" letter-spacing="0.5">5-AXIS BLADED TURBINE IMPELLER</text>
  <text x="35" y="85" font-size="11" fill="#94a3b8">DWG REF: <tspan fill="#f59e0b" font-weight="700">DWG-5AX-IMP-718</tspan> | PROJECTION: THIRD ANGLE</text>

  <!-- Technical Parameters Top Right -->
  <rect x="580" y="30" width="185" height="58" rx="6" fill="#0c1322" stroke="#1e293b" stroke-width="1"/>
  <text x="592" y="50" font-size="10" fill="#64748b">PARAM 01: <tspan fill="#38bdf8" font-weight="700">TI-6AL-4V / INCONEL 718</tspan></text>
  <text x="592" y="70" font-size="10" fill="#64748b">TOLERANCE: <tspan fill="#10b981" font-weight="700">±0.005mm PROFILE</tspan></text>

  <!-- Center Artwork Content -->
  <g transform="translate(0, 20)">
    
  <g stroke="#00f2fe" stroke-width="1.8" fill="none" filter="url(#glow)">
    <!-- Central Hub -->
    <ellipse cx="400" cy="235" rx="55" ry="32" stroke="#f59e0b" stroke-width="2.5" fill="#f59e0b" fill-opacity="0.1"/>
    <ellipse cx="400" cy="235" rx="22" ry="13" stroke="#00f2fe" stroke-width="2" fill="#070a12"/>

    <!-- 12 Aerodynamic Curved Twisted Blades -->
    <path d="M 400 203 C 410 160 480 130 540 160 C 510 180 460 210 425 218" stroke="#00f2fe" stroke-width="2.2" fill="#00f2fe" fill-opacity="0.08"/>
    <path d="M 425 218 C 470 200 550 200 580 240 C 540 250 470 250 435 240" stroke="#00f2fe" stroke-width="2.2" fill="#00f2fe" fill-opacity="0.08"/>
    <path d="M 435 240 C 480 250 540 280 545 325 C 505 320 445 285 418 255" stroke="#00f2fe" stroke-width="2.2" fill="#00f2fe" fill-opacity="0.08"/>
    <path d="M 418 255 C 440 290 440 350 410 380 C 390 350 380 290 395 262" stroke="#00f2fe" stroke-width="2.2" fill="#00f2fe" fill-opacity="0.08"/>
    <path d="M 395 262 C 370 295 315 350 265 340 C 285 305 340 270 375 252" stroke="#00f2fe" stroke-width="2.2" fill="#00f2fe" fill-opacity="0.08"/>
    <path d="M 375 252 C 320 270 245 280 220 240 C 255 225 325 225 368 232" stroke="#00f2fe" stroke-width="2.2" fill="#00f2fe" fill-opacity="0.08"/>
    <path d="M 368 232 C 320 215 250 180 260 140 C 295 155 350 190 380 215" stroke="#00f2fe" stroke-width="2.2" fill="#00f2fe" fill-opacity="0.08"/>
    <path d="M 380 215 C 365 170 365 115 400 95 C 415 125 415 180 400 203" stroke="#00f2fe" stroke-width="2.2" fill="#00f2fe" fill-opacity="0.08"/>

    <!-- Shroud Outer Envelope Circle -->
    <ellipse cx="400" cy="235" rx="195" ry="115" stroke="#334155" stroke-width="1.2" stroke-dasharray="6 4"/>
  </g>

  <!-- Spindle Rotation Indicator -->
  <path d="M 480 100 A 150 85 0 0 1 560 170" fill="none" stroke="#f59e0b" stroke-width="2" stroke-dasharray="4 2"/>
  <polygon points="562,175 558,162 568,168" fill="#f59e0b"/>
  <text x="500" y="85" font-size="10" fill="#f59e0b" font-weight="700">18,000 RPM 5-AXIS MILLING</text>
  
  </g>

  <!-- Bottom Title Block / Cert Stamp -->
  <rect x="550" y="440" width="225" height="35" fill="#0b1120" stroke="#1e293b" stroke-width="1"/>
  <text x="562" y="455" font-size="9" fill="#94a3b8">VERIFICATION: <tspan fill="#10b981">ZEISS CMM INSPECTED</tspan></text>
  <text x="562" y="468" font-size="8.5" fill="#64748b">TRACEABILITY: EN 10204 TYPE 3.1</text>

  <!-- Status Indicator Bottom Left -->
  <circle cx="40" cy="455" r="4" fill="#10b981"/>
  <text x="52" y="459" font-size="10" fill="#cbd5e1" font-weight="600">3D CAD SOLID MODEL • CALIBRATED TO ±0.005mm</text>
</svg>